<svg width="80" height="64" viewBox="0 0 80 64" fill="none" xmlns="http://www.w3.org/2000/svg">
<path d="M34.025 8.075L27.6375 14.4625C25.725 14.9875 23.95 15.95 22.45 17.275L19.125 20.2375C17.85 21.375 16.1875 22 14.475 22H12V38C14.55 38.075 16.975 39.1125 18.7875 40.925L23.2375 45.375L24.1125 46.25L27.4875 49.625C28.2625 50.4 29.5375 50.4 30.3125 49.625C30.525 49.4125 30.6875 49.1625 30.775 48.9C31.125 47.9375 31.9375 47.2125 32.9375 46.9875C33.9375 46.7625 34.9875 47.0625 35.7125 47.8L37.0625 49.125C38.5125 50.575 40.8625 50.575 42.3 49.125C42.975 48.45 43.3375 47.5875 43.375 46.7C43.425 45.6 44.075 44.625 45.075 44.15C46.075 43.675 47.2375 43.775 48.125 44.4125C49.3 45.25 50.9375 45.1375 51.9875 44.0875C53.1625 42.9125 53.1625 41.0125 51.9875 39.85L42.5125 30.375L38.0375 34.5C34.625 37.65 29.3875 37.7 25.9125 34.6125C21.95 31.0875 21.8625 24.9375 25.7125 21.3L34.475 13.025C37.9 9.8 42.425 8 47.1375 8C51.65 8 56.0125 9.6625 59.375 12.65L63.1375 16H78C79.1 16 80 16.9 80 18V44C80 46.2125 78.2125 48 76 48H72C70.525 48 69.225 47.2 68.5375 46H57.925C57.5 46.8375 56.9375 47.6375 56.2375 48.3375C54.1 50.475 51.1375 51.3125 48.3625 50.85C47.9125 51.7625 47.3 52.6125 46.5375 53.375C43.125 56.7875 37.7875 57.125 33.9875 54.3875C30.85 56.9875 26.175 56.825 23.2375 53.875L19.875 50.5L19 49.625L14.55 45.175C13.8625 44.4875 12.9625 44.0875 12 44.0125C12 46.2125 10.2 48 8 48H4C1.7875 48 0 46.2125 0 44V18C0 16.9 0.9 16 2 16H14.475C14.725 16 14.9625 15.9125 15.1375 15.75L18.45 12.8C21.9375 9.7125 26.425 8 31.0875 8H32.375C32.925 8 33.4875 8.025 34.025 8.075ZM68 40V22H62C61.2625 22 60.55 21.725 60.0125 21.2375L55.4 17.1375C53.125 15.1125 50.1875 14 47.1375 14C43.9625 14 40.9125 15.2125 38.6 17.3875L29.8375 25.6625C28.55 26.8875 28.575 28.95 29.9 30.125C31.0625 31.1625 32.825 31.1375 33.9625 30.0875L42.95 21.7875C44.1625 20.6625 46.0625 20.7375 47.1875 21.9625C48.3125 23.1875 48.2375 25.075 47.0125 26.2L46.9125 26.3L56.2125 35.6C57.4625 36.85 58.275 38.3875 58.6375 39.9875H67.9875L68 40ZM8 42C8 41.4696 7.78929 40.9609 7.41421 40.5858C7.03914 40.2107 6.53043 40 6 40C5.46957 40 4.96086 40.2107 4.58579 40.5858C4.21071 40.9609 4 41.4696 4 42C4 42.5304 4.21071 43.0391 4.58579 43.4142C4.96086 43.7893 5.46957 44 6 44C6.53043 44 7.03914 43.7893 7.41421 43.4142C7.78929 43.0391 8 42.5304 8 42ZM74 44C74.5304 44 75.0391 43.7893 75.4142 43.4142C75.7893 43.0391 76 42.5304 76 42C76 41.4696 75.7893 40.9609 75.4142 40.5858C75.0391 40.2107 74.5304 40 74 40C73.4696 40 72.9609 40.2107 72.5858 40.5858C72.2107 40.9609 72 41.4696 72 42C72 42.5304 72.2107 43.0391 72.5858 43.4142C72.9609 43.7893 73.4696 44 74 44Z" fill="#CCD6F6"/>
</svg>
