<svg width="64" height="64" viewBox="0 0 64 64" fill="none" xmlns="http://www.w3.org/2000/svg">
<path d="M24 48C23.1667 48 22.3854 47.8438 21.6562 47.5312C20.9271 47.2188 20.2917 46.7917 19.75 46.25C19.2083 45.7083 18.7812 45.0729 18.4688 44.3438C18.1562 43.6146 18 42.8333 18 42V6C18 5.16667 18.1562 4.38542 18.4688 3.65625C18.7812 2.92708 19.2083 2.29167 19.75 1.75C20.2917 1.20833 20.9271 0.78125 21.6562 0.46875C22.3854 0.15625 23.1667 0 24 0H40C40.8333 0 41.6146 0.15625 42.3438 0.46875C43.0729 0.78125 43.7083 1.20833 44.25 1.75C44.7917 2.29167 45.2188 2.92708 45.5312 3.65625C45.8438 4.38542 46 5.16667 46 6V42C46 42.8333 45.8438 43.6146 45.5312 44.3438C45.2188 45.0729 44.7917 45.7083 44.25 46.25C43.7083 46.7917 43.0729 47.2188 42.3438 47.5312C41.6146 47.8438 40.8333 48 40 48H24ZM22 42C22 42.5417 22.1979 43.0104 22.5938 43.4062C22.9896 43.8021 23.4583 44 24 44H40C40.5417 44 41.0104 43.8021 41.4062 43.4062C41.8021 43.0104 42 42.5417 42 42V6C42 5.45833 41.8021 4.98958 41.4062 4.59375C41.0104 4.19792 40.5417 4 40 4H24C23.4583 4 22.9896 4.19792 22.5938 4.59375C22.1979 4.98958 22 5.45833 22 6V42ZM54 32V43.3125C54 45.0625 53.6667 46.7083 53 48.25C52.3333 49.7917 51.4271 51.1354 50.2812 52.2812C49.1354 53.4271 47.7917 54.3333 46.25 55C44.7083 55.6667 43.0625 56 41.3125 56H34V60H42V64H22V60H30V56H22.6875C20.9375 56 19.2917 55.6667 17.75 55C16.2083 54.3333 14.8646 53.4271 13.7188 52.2812C12.5729 51.1354 11.6667 49.7917 11 48.25C10.3333 46.7083 10 45.0625 10 43.3125V32H14V43.3125C14 44.5 14.2292 45.625 14.6875 46.6875C15.1458 47.75 15.7604 48.6667 16.5312 49.4375C17.3021 50.2083 18.2292 50.8333 19.3125 51.3125C20.3958 51.7917 21.5208 52.0208 22.6875 52H41.3125C42.5 52 43.625 51.7708 44.6875 51.3125C45.75 50.8542 46.6667 50.2396 47.4375 49.4688C48.2083 48.6979 48.8333 47.7708 49.3125 46.6875C49.7917 45.6042 50.0208 44.4792 50 43.3125V32H54Z" fill="#CCD6F6"/>
</svg>
