<svg width="64" height="64" viewBox="0 0 64 64" fill="none" xmlns="http://www.w3.org/2000/svg">
<path d="M32 56V32M32 18.6667H21.2C13.8133 18.6667 13.36 8 21.2 8C29.6 8 32 18.6667 32 18.6667ZM32 18.6667H42.8C50.5226 18.6667 50.5226 8 42.8 8C34.4 8 32 18.6667 32 18.6667Z" stroke="#CCD6F6" stroke-width="4" stroke-linecap="round" stroke-linejoin="round"/>
<path d="M53.3333 32V50.6666C53.3333 52.0811 52.7714 53.4377 51.7712 54.4379C50.771 55.4381 49.4145 56 48 56H16C14.5855 56 13.229 55.4381 12.2288 54.4379C11.2286 53.4377 10.6667 52.0811 10.6667 50.6666V32M56 32V24C56 22.5855 55.4381 21.2289 54.4379 20.2287C53.4377 19.2285 52.0812 18.6666 50.6667 18.6666H13.3333C11.9188 18.6666 10.5623 19.2285 9.5621 20.2287C8.5619 21.2289 8 22.5855 8 24V32H56Z" stroke="#CCD6F6" stroke-width="4" stroke-linecap="round" stroke-linejoin="round"/>
</svg>
