<svg width="64" height="64" viewBox="0 0 64 64" fill="none" xmlns="http://www.w3.org/2000/svg">
<path fill-rule="evenodd" clip-rule="evenodd" d="M29.8267 8.15461C30.2907 8.40795 30.5867 8.90128 30.5867 9.45328V21.8213C30.5871 22.0443 30.5366 22.2644 30.4391 22.465C30.3416 22.6655 30.1996 22.8412 30.024 22.9786L25.9707 26.1146C27.8774 27.4399 30.5867 29.3173 30.5867 31.9999C30.5867 34.8399 28.1174 36.8426 25.9014 38.0853L29.9814 40.9813C30.3627 41.2613 30.5867 41.7013 30.5867 42.1813V54.5493C30.5876 54.8102 30.5188 55.0666 30.3876 55.292C30.2563 55.5175 30.0673 55.7039 29.84 55.8319C29.6139 55.9542 29.3583 56.0113 29.1016 55.9967C28.845 55.9821 28.5975 55.8964 28.3867 55.7493L12.8534 44.8479C11.8177 44.1502 10.9645 43.2144 10.365 42.1189C9.76556 41.0235 9.43739 39.8003 9.40802 38.5519C9.40802 36.7599 10.1974 34.5999 12.8374 32.0559C10.8187 30.3359 9.40802 28.2453 9.40802 25.4506C9.40802 22.1039 13.2907 19.2373 15.6747 17.6986L28.3414 8.28261C28.5521 8.12549 28.8026 8.03028 29.0645 8.00766C29.3264 7.98505 29.5894 8.03594 29.824 8.15461M15.3974 21.4693C14.3654 22.3146 12.2347 23.9119 12.2347 25.4506C12.2347 27.5946 13.5334 28.9226 15.0587 30.1786L19.2934 27.3973L22.1174 29.0933L17.4294 31.9866L23.2454 36.1786C24.8 35.5173 27.7654 34.0613 27.7654 31.9999C27.7654 29.8133 24.2907 28.4586 22.752 27.3973C20.3094 25.7039 16.9787 24.1226 15.4107 21.4693H15.3974ZM15.1147 33.8506C12.544 36.1946 12.2347 37.7599 12.2347 38.5519C12.2347 39.5813 12.7574 41.2773 14.4214 42.4346H14.4374L15.6374 43.2826C16.0205 42.2369 16.6213 41.2844 17.4 40.4882C18.1788 39.6919 19.1177 39.0702 20.1547 38.6639L22.2427 40.7253C20.5494 41.4879 18.8 43.0266 18.4747 43.7626C18.2845 44.1775 18.1976 44.6322 18.2214 45.088L27.7654 51.7946V42.9413C23.5337 39.9307 19.3168 36.8996 15.1147 33.8479M17.712 19.7706C18.672 21.8319 21.7067 23.1893 23.4854 24.4026L27.7654 21.0853V12.3066L17.712 19.7866V19.7706ZM34.16 8.16528C34.3836 8.04409 34.6361 7.98671 34.8901 7.99941C35.1441 8.01211 35.3897 8.0944 35.6 8.23728L50.4267 18.4293C52.896 20.1093 54.5894 22.2986 54.5894 25.4479C54.5894 28.0319 52.9654 30.2053 51.2027 31.8853C52.7547 33.1546 54.5894 35.2719 54.5894 38.5493C54.5894 42.6426 51.6107 44.6053 49.648 45.8906L49.0134 46.3013C47.9387 47.048 39.624 52.8799 35.6267 55.7466C35.4159 55.8937 35.1684 55.9794 34.9117 55.994C34.6551 56.0086 34.3995 55.9516 34.1734 55.8293C33.9431 55.7033 33.7508 55.5178 33.6167 55.2922C33.4825 55.0666 33.4114 54.8091 33.4107 54.5466V42.1786C33.4107 41.7253 33.624 41.2879 33.976 41.0213L37.944 37.9546C35.7414 36.5866 33.4107 35.0213 33.4107 31.9973C33.4107 29.3439 36.136 27.2826 38 25.8853L34.0187 23.0053C33.8308 22.8696 33.6777 22.6913 33.572 22.485C33.4664 22.2788 33.4111 22.0504 33.4107 21.8186V9.45328C33.4067 9.19324 33.4746 8.93715 33.6068 8.71319C33.739 8.48923 33.9304 8.3061 34.16 8.18395V8.16528ZM40.456 27.6506C39.3707 28.4399 36.2347 30.3039 36.2347 31.9973C36.2347 34.3439 39.68 35.6399 41.192 36.5733L41.2454 36.5999C43.9014 38.4213 47.2187 39.9759 48.9574 42.8559C50.5947 41.7093 51.7654 40.6399 51.7654 38.5493C51.7654 36.2479 50.312 34.7946 48.9707 33.7919L44.7067 37.0959L41.8827 35.6399L46.5414 32.0399L40.472 27.6639L40.456 27.6506ZM48.856 30.1626L36.2347 21.0559V12.1653L45.3414 18.4186C46.824 19.4346 42.4614 22.7946 41.8827 23.2746L44.7067 24.7306C46.288 23.4159 47.4747 22.5279 48.1947 20.3813L48.872 20.8479C50.5254 21.9759 51.7654 23.2906 51.7654 25.4506C51.7654 27.3706 50.1574 28.9786 48.8587 30.1653M46.6 44.4666C45.3307 42.2079 42.5467 40.9946 40.5307 39.5973L36.2374 42.9146V51.7679L46.616 44.4666H46.6Z" fill="#CCD6F6"/>
</svg>
